<?xml version="1.0" standalone="no"?>
<!DOCTYPE svg PUBLIC "-//W3C//DTD SVG 20010904//EN"
 "http://www.w3.org/TR/2001/REC-SVG-20010904/DTD/svg10.dtd">
<svg version="1.0" xmlns="http://www.w3.org/2000/svg"
 width="70.000000pt" height="70.000000pt" viewBox="0 0 70.000000 70.000000"
 preserveAspectRatio="xMidYMid meet">
<metadata>
Created by potrace 1.11, written by Peter Selinger 2001-2013
</metadata>
<g transform="translate(0.000000,70.000000) scale(0.100000,-0.100000)"
fill="#000000" stroke="none">
<path d="M178 673 c-16 -4 -18 -18 -18 -108 0 -108 5 -139 22 -129 6 4 5 -2
-1 -14 -6 -11 -11 -32 -11 -47 0 -14 -4 -24 -9 -20 -18 11 -22 -59 -7 -110 18
-58 20 -101 6 -110 -14 -9 -12 -31 3 -47 7 -7 16 -21 20 -31 5 -13 15 -17 34
-15 l28 3 -3 80 c-2 67 1 84 17 103 11 12 22 22 25 22 2 0 42 -42 86 -92 79
-90 115 -115 173 -117 21 -1 23 18 1 26 -9 3 -37 28 -62 56 -26 27 -52 55 -57
61 -98 104 -99 106 -80 124 18 16 18 16 6 0 -17 -22 -8 -23 24 -2 14 9 25 22
25 30 0 7 12 26 26 41 15 15 20 19 13 9 -13 -18 -13 -19 9 -7 14 7 21 18 18
27 -3 8 8 30 25 49 25 28 28 36 16 41 -32 12 -61 -1 -80 -36 -10 -19 -26 -42
-34 -50 -9 -8 -6 1 6 20 l23 35 -36 -38 c-20 -21 -34 -42 -31 -46 3 -5 -11
-19 -30 -31 -19 -12 -44 -35 -56 -51 -32 -46 -43 -37 -34 29 9 63 9 107 1 232
-3 47 -6 93 -6 103 -1 17 -16 20 -52 10z m-1 -85 c-2 -13 -4 -3 -4 22 0 25 2
35 4 23 2 -13 2 -33 0 -45z"/>
</g>
</svg>
